<?xml version="1.0" encoding="UTF-8"?>
<svg xmlns="http://www.w3.org/2000/svg" version="1.1" xmlns:xlink="http://www.w3.org/1999/xlink" viewBox="0 0 180 100">
  <defs>
    <style>
      .cls-1 {
        fill: url(#linear-gradient-2);
      }

      .cls-2 {
        fill: #fff;
      }

      .cls-3 {
        fill: url(#linear-gradient);
      }
    </style>
    <linearGradient id="linear-gradient" x1="23.91" y1="61.65" x2="162.51" y2="61.65" gradientTransform="translate(-2.93 .74) rotate(-4.01)" gradientUnits="userSpaceOnUse">
      <stop offset="0" stop-color="#00073f"/>
      <stop offset=".22" stop-color="#022b5f"/>
      <stop offset=".75" stop-color="#0881ae"/>
      <stop offset="1" stop-color="#0ba4ce"/>
    </linearGradient>
    <linearGradient id="linear-gradient-2" x1="11.04" y1="51.96" x2="167.99" y2="51.96" xlink:href="#linear-gradient"/>
  </defs>
  <!-- Generator: Adobe Illustrator 28.7.1, SVG Export Plug-In . SVG Version: 1.2.0 Build 142)  -->
  <g>
    <g id="Layer_1">
      <g>
        <g>
          <path class="cls-3" d="M94.05,51.25c18.8-5.51,36.03-7.45,48.71-5.9,12.66,1.2,20.76,5.88,20.73,5.53.02.35-7.92-2.1-20.42-1.06-12.52.69-29.6,4.87-48.4,10.37-18.8,5.51-36.03,7.45-48.71,5.9-12.66-1.2-20.76-5.88-20.74-5.53-.02-.35,7.92,2.1,20.42,1.06,12.52-.69,29.6-4.87,48.4-10.37Z"/>
          <path class="cls-1" d="M89.55,39.96c21.2-7.45,40.7-9.86,55.11-7.41,14.37,1.96,23.66,8.78,23.62,8.28.03.5-9.03-3.15-23.18-1.92-14.19.72-33.46,6.32-54.66,13.77-21.2,7.45-40.7,9.86-55.11,7.41-14.37-1.96-23.66-8.78-23.62-8.28-.03-.5,9.03,3.15,23.18,1.92,14.19-.72,33.46-6.32,54.66-13.77Z"/>
        </g>
        <g>
          <path class="cls-2" d="M155.77,31.05c-1.76,0-3.19,1.43-3.19,3.19s1.43,3.19,3.19,3.19,3.19-1.43,3.19-3.19-1.43-3.19-3.19-3.19ZM155.77,37.11c-1.58,0-2.87-1.29-2.87-2.87s1.29-2.87,2.87-2.87,2.87,1.29,2.87,2.87-1.29,2.87-2.87,2.87Z"/>
          <path class="cls-2" d="M155.29,33.29h-1.28c-.09,0-.16.07-.16.16s.07.16.16.16h.48v1.43c0,.09.07.16.16.16s.16-.07.16-.16v-1.43h.48c.09,0,.16-.07.16-.16s-.07-.16-.16-.16Z"/>
          <path class="cls-2" d="M157.27,33.3c-.06-.02-.13-.01-.17.03l-.53.53-.53-.53s-.11-.06-.17-.03c-.06.02-.1.08-.1.15v1.59c0,.09.07.16.16.16s.16-.07.16-.16v-1.21l.37.37c.06.06.16.06.23,0l.37-.37v1.21c0,.09.07.16.16.16s.16-.07.16-.16v-1.59c0-.06-.04-.12-.1-.15Z"/>
        </g>
        <g>
          <path class="cls-2" d="M39.62,42.57h.75c.97,2.1,2.34,5.4,4.1,9.91.81,2.07,1.37,3.32,1.68,3.76.31.44.8.71,1.46.8.22.03.33.13.33.29,0,.23-.14.34-.43.34-.15,0-.55-.03-1.2-.08-.76-.07-1.41-.1-1.93-.1s-1.17.03-1.98.09c-.61.04-1.01.07-1.2.07-.34,0-.51-.11-.51-.32,0-.16.12-.25.35-.28.9-.08,1.35-.44,1.35-1.06,0-.3-.13-.84-.4-1.62s-.55-1.5-.85-2.14c-.48,0-.85-.01-1.11-.01-1.48,0-2.63,0-3.45.01-.63,1.73-.95,2.88-.95,3.44,0,.4.16.71.47.94.32.22.66.35,1.02.39.28.03.42.14.42.34s-.15.3-.45.3c-.12,0-.43-.02-.92-.05-.65-.05-1.12-.08-1.41-.08-.58,0-1.13.04-1.65.11-.13.02-.24.03-.33.03-.27,0-.41-.11-.41-.33,0-.16.09-.27.26-.32.44-.12.79-.28,1.03-.46.25-.18.52-.53.81-1.05.29-.52.64-1.35,1.04-2.5.91-2.57,2.27-6.04,4.07-10.41ZM38.84,46.41l-1.91,4.92,3.89-.06c-.21-.58-.52-1.36-.95-2.37-.46-1.08-.81-1.92-1.03-2.5Z"/>
          <path class="cls-2" d="M61.09,57.64c-1.83-.1-4.69-.14-8.56-.14-1.35,0-2.45.04-3.29.12-.21.01-.36.02-.45.02-.28,0-.42-.11-.42-.33,0-.1.04-.17.11-.21.07-.04.25-.08.54-.13.45-.07.8-.2,1.05-.4.24-.2.41-.5.51-.9.1-.4.16-1.42.17-3.06s.02-3.6.02-5.86c0-.9-.07-1.56-.2-1.97-.13-.41-.32-.71-.57-.89-.25-.19-.59-.29-1.04-.31-.32-.01-.47-.13-.47-.35s.18-.33.54-.33l3.65.11c.56,0,1.35-.03,2.37-.09.37-.02.62-.02.75-.02.31,0,.46.11.46.32,0,.12-.05.2-.15.25-.1.05-.35.1-.74.16-.49.07-.84.19-1.04.37-.2.18-.34.5-.41.96-.07.46-.1,1.48-.1,3.06v6.69c0,1.03.1,1.64.28,1.84s.51.29,1,.29c1.2,0,2.1-.09,2.69-.28.59-.19,1.15-.53,1.68-1.02s1.1-1.32,1.71-2.48c.12-.24.25-.35.38-.35.2,0,.3.11.3.32,0,.48-.25,2.02-.76,4.62Z"/>
          <path class="cls-2" d="M75.18,57.64c-1.83-.1-4.69-.14-8.56-.14-1.35,0-2.45.04-3.29.12-.21.01-.36.02-.45.02-.28,0-.42-.11-.42-.33,0-.1.04-.17.11-.21.07-.04.25-.08.54-.13.45-.07.8-.2,1.05-.4.24-.2.41-.5.51-.9.1-.4.16-1.42.17-3.06s.02-3.6.02-5.86c0-.9-.07-1.56-.2-1.97-.13-.41-.32-.71-.57-.89-.25-.19-.59-.29-1.04-.31-.32-.01-.47-.13-.47-.35s.18-.33.54-.33l3.65.11c.56,0,1.35-.03,2.37-.09.37-.02.62-.02.75-.02.31,0,.46.11.46.32,0,.12-.05.2-.15.25-.1.05-.35.1-.74.16-.49.07-.84.19-1.04.37-.2.18-.34.5-.41.96-.07.46-.1,1.48-.1,3.06v6.69c0,1.03.1,1.64.28,1.84s.51.29,1,.29c1.2,0,2.1-.09,2.69-.28.59-.19,1.15-.53,1.68-1.02s1.1-1.32,1.71-2.48c.12-.24.25-.35.38-.35.2,0,.3.11.3.32,0,.48-.25,2.02-.76,4.62Z"/>
          <path class="cls-2" d="M76.09,42.85c3.81.1,6.63.15,8.46.15,1.39,0,2.92-.04,4.58-.12.59-.03,1.08-.04,1.46-.04.15,0,.39,0,.74.01.05.3.12.92.2,1.86l.17,1.74c0,.29-.12.43-.36.43-.18,0-.36-.18-.53-.53-.28-.59-.64-1.1-1.07-1.53-.44-.43-.94-.71-1.52-.85-.58-.14-1.53-.21-2.86-.21-.12,1.12-.18,2.53-.18,4.22s.03,3.39.1,4.99c.07,1.6.15,2.57.24,2.9s.26.57.48.73c.23.15.76.26,1.61.32.29.02.43.12.43.31,0,.21-.13.31-.37.31h-.31s-2.28-.07-2.28-.07c-1.78,0-2.86,0-3.24.02l-1.39.06c-.11,0-.34,0-.68-.02-.17-.04-.25-.13-.25-.28,0-.21.14-.32.42-.32.65,0,1.14-.14,1.48-.41s.53-.7.61-1.29.12-1.87.12-3.85c0-3.12-.1-5.66-.29-7.62-1.21,0-2.09.05-2.63.15-.54.1-1.06.37-1.56.81-.5.44-.91,1.02-1.22,1.72-.12.28-.27.42-.43.42-.25,0-.37-.11-.37-.33,0-.07.05-.55.14-1.45s.2-1.65.31-2.24Z"/>
          <path class="cls-2" d="M100.76,50.11c.99.14,1.8.44,2.44.9.64.46,1.12,1.37,1.44,2.74.31,1.28.63,2.13.98,2.53.34.41.83.63,1.45.67.34.02.52.13.52.33,0,.21-.28.32-.84.32l-4.24-.11c-.44-.44-.74-1.23-.9-2.36-.21-1.45-.42-2.47-.64-3.06-.22-.6-.55-1.02-.99-1.28-.44-.26-.95-.39-1.53-.39-.17,0-.4.01-.69.03,0,2.58,0,4.17.03,4.77.02.6.14,1.03.36,1.29.22.26.64.41,1.25.43.33.02.5.13.5.33s-.14.3-.43.3l-3.38-.09c-.46,0-1.04.02-1.75.06-.65.04-1.07.05-1.24.05-.3,0-.45-.11-.45-.32s.13-.31.4-.31c.41,0,.79-.1,1.14-.31.35-.21.52-1.07.52-2.61v-2.05s0-3.95,0-3.95c0-2.04-.09-3.29-.27-3.74-.18-.45-.66-.68-1.45-.7-.31,0-.46-.11-.46-.32s.21-.32.62-.32c2.07,0,3.82-.04,5.26-.13.64-.04,1.21-.07,1.73-.07,1.67,0,2.97.33,3.92,1,.95.66,1.42,1.53,1.42,2.6,0,.72-.22,1.36-.67,1.94-.45.57-1.01,1-1.68,1.28s-1.46.46-2.36.53ZM97.76,49.65c.19,0,.33.01.43.01.64,0,1.28-.12,1.93-.36.65-.24,1.11-.62,1.38-1.14.27-.52.4-1.08.4-1.68,0-.92-.27-1.63-.81-2.15-.54-.51-1.24-.77-2.1-.77-.36,0-.77.07-1.22.2v5.89Z"/>
          <path class="cls-2" d="M107.49,42.85l3.54.11c.34,0,.72-.02,1.16-.06.69-.05,1.23-.08,1.63-.08.37,0,.56.1.56.31s-.15.3-.44.32c-.53.03-.92.22-1.18.57-.26.35-.43,1.06-.5,2.15-.07,1.08-.11,2.27-.11,3.57,0,2.08.1,3.48.3,4.2s.62,1.29,1.28,1.71,1.52.64,2.6.64,1.92-.23,2.48-.7c.56-.47.94-1.2,1.15-2.19s.31-2.85.31-5.55c0-1.6-.12-2.7-.37-3.31-.25-.61-.68-.94-1.28-1-.43-.04-.65-.17-.65-.39s.18-.32.53-.32c.17,0,.45.02.85.06.41.03.84.05,1.29.05.41,0,.87-.02,1.38-.07.38-.03.65-.04.79-.04.37,0,.55.11.55.32,0,.17-.13.27-.4.3-.37.04-.7.21-1,.51-.3.3-.49.81-.57,1.51-.08.7-.13,2.5-.13,5.4,0,1.91-.19,3.29-.57,4.14-.38.85-1.05,1.52-2,1.99-.95.47-2.13.71-3.55.71-1.09,0-2.04-.1-2.85-.29-.81-.19-1.45-.49-1.92-.9s-.81-.87-1.02-1.4-.31-1.31-.31-2.33l.04-5.86c0-.82-.05-1.5-.14-2.02-.09-.53-.24-.88-.43-1.05s-.5-.28-.9-.32c-.26-.03-.42-.07-.48-.12-.06-.05-.09-.13-.09-.24,0-.22.16-.33.47-.33Z"/>
          <path class="cls-2" d="M132.77,43.46c.1-.09.19-.24.29-.43.11-.23.23-.35.37-.35.2,0,.32.16.36.48l.39,3.02.04.36c0,.2-.1.3-.3.3-.15,0-.25-.03-.32-.1-.07-.07-.19-.3-.37-.68-.32-.66-.84-1.24-1.56-1.77-.73-.52-1.46-.78-2.19-.78s-1.3.2-1.78.61c-.47.41-.71.92-.71,1.54,0,.49.22.94.66,1.34.44.4,1.29.77,2.54,1.13,1.97.56,3.3,1.25,4,2.07.69.82,1.03,1.73,1.03,2.74s-.25,1.89-.76,2.59c-.51.7-1.11,1.25-1.82,1.64s-1.61.6-2.71.6c-.62,0-1.27-.09-1.94-.27-.67-.18-1.36-.45-2.07-.81-.15.17-.27.39-.37.66-.12.3-.26.45-.44.45s-.29-.2-.33-.59l-.32-4c-.01-.18-.02-.29-.02-.33,0-.21.11-.32.33-.32.16,0,.32.18.46.55.45,1.1,1.06,2.02,1.83,2.75.76.73,1.65,1.1,2.67,1.1.87,0,1.56-.26,2.1-.77.53-.51.8-1.1.8-1.75s-.25-1.2-.74-1.65c-.49-.45-1.38-.88-2.65-1.29-1.24-.4-2.16-.79-2.77-1.16-.61-.37-1.09-.87-1.45-1.51-.36-.64-.54-1.29-.54-1.95,0-1.15.45-2.13,1.34-2.94.89-.81,2.1-1.21,3.64-1.21.83,0,1.93.25,3.31.74Z"/>
          <path class="cls-2" d="M136.8,42.85c3.81.1,6.63.15,8.46.15,1.39,0,2.92-.04,4.58-.12.59-.03,1.08-.04,1.46-.04.15,0,.39,0,.74.01.05.3.12.92.2,1.86l.17,1.74c0,.29-.12.43-.36.43-.18,0-.36-.18-.53-.53-.28-.59-.64-1.1-1.07-1.53-.44-.43-.94-.71-1.52-.85-.58-.14-1.53-.21-2.86-.21-.12,1.12-.18,2.53-.18,4.22s.03,3.39.1,4.99c.07,1.6.15,2.57.24,2.9s.26.57.48.73c.23.15.76.26,1.61.32.29.02.43.12.43.31,0,.21-.13.31-.37.31h-.31s-2.28-.07-2.28-.07c-1.78,0-2.86,0-3.24.02l-1.39.06c-.11,0-.34,0-.68-.02-.17-.04-.25-.13-.25-.28,0-.21.14-.32.42-.32.65,0,1.14-.14,1.48-.41s.53-.7.61-1.29.12-1.87.12-3.85c0-3.12-.1-5.66-.29-7.62-1.21,0-2.09.05-2.63.15-.54.1-1.06.37-1.56.81-.5.44-.91,1.02-1.22,1.72-.12.28-.27.42-.43.42-.25,0-.37-.11-.37-.33,0-.07.05-.55.14-1.45s.2-1.65.31-2.24Z"/>
        </g>
        <g>
          <path class="cls-2" d="M61.82,65.34l-.51,1.4h-.32l1.48-4.04h.37l1.55,4.04h-.34l-.53-1.4h-1.7ZM63.42,65.05c-.45-1.2-.68-1.78-.76-2.05h0c-.1.31-.36,1.02-.72,2.05h1.49Z"/>
          <path class="cls-2" d="M66.9,62.7v2.45c0,1.07.61,1.35,1.18,1.35.68,0,1.18-.28,1.18-1.35v-2.45h.32v2.43c0,1.26-.67,1.66-1.51,1.66s-1.49-.43-1.49-1.6v-2.48h.32Z"/>
          <path class="cls-2" d="M70.98,65.34l-.51,1.4h-.32l1.48-4.04h.37l1.55,4.04h-.34l-.53-1.4h-1.7ZM72.58,65.05c-.45-1.2-.68-1.78-.76-2.05h0c-.1.31-.36,1.02-.72,2.05h1.49Z"/>
          <path class="cls-2" d="M74.26,62.7h1.44c.74,0,1.25.41,1.25,1.13s-.5,1.15-1.29,1.15h-1.08v1.76h-.32v-4.04ZM74.58,64.69h1.11c.65,0,.92-.35.92-.85,0-.54-.36-.85-.9-.85h-1.14v1.7Z"/>
          <path class="cls-2" d="M82.41,66.73h-.26s-.03-.25-.04-.65c-.14.28-.46.69-1.3.69-1.16,0-1.75-.88-1.75-2.03,0-1.21.63-2.11,1.82-2.11.87,0,1.45.46,1.58,1.2h-.31c-.17-.57-.57-.91-1.28-.91-1.01,0-1.47.78-1.47,1.81,0,.92.44,1.76,1.43,1.76s1.29-.66,1.29-1.55v-.05h-1.3v-.29h1.6v2.13Z"/>
          <path class="cls-2" d="M83.35,64.63c0-.48,0-.69,0-.78h.28c0,.09.01.28.01.65.17-.43.54-.69,1-.72v.31c-.6.04-1,.46-1,1.14v1.5h-.29v-2.1Z"/>
          <path class="cls-2" d="M87.51,65.29c0,.8-.44,1.52-1.3,1.52-.78,0-1.26-.64-1.26-1.51,0-.83.46-1.51,1.29-1.51.77,0,1.28.6,1.28,1.51ZM85.25,65.29c0,.69.37,1.24.98,1.24s.98-.51.98-1.24c0-.68-.35-1.24-.99-1.24s-.97.55-.97,1.24Z"/>
          <path class="cls-2" d="M90.39,65.89c0,.28,0,.73,0,.84h-.28c-.01-.07-.02-.27-.02-.5-.12.34-.42.57-.93.57-.42,0-.95-.16-.95-1.04v-1.91h.28v1.84c0,.42.13.83.7.83.65,0,.89-.36.89-1.19v-1.48h.29v2.04Z"/>
          <path class="cls-2" d="M91.62,66.31v1.58h-.29v-3.33c0-.24,0-.49,0-.71h.28c.01.11.01.28.01.52.18-.35.5-.59,1.02-.59.68,0,1.15.57,1.15,1.44,0,1.04-.55,1.59-1.25,1.59-.51,0-.77-.23-.92-.5ZM93.49,65.23c0-.67-.32-1.17-.89-1.17-.7,0-.99.44-.99,1.22s.23,1.25.95,1.25c.6,0,.94-.51.94-1.3Z"/>
          <path class="cls-2" d="M99.16,65.66c-.19.64-.66,1.13-1.52,1.13-1.16,0-1.77-.92-1.77-2.06s.6-2.08,1.78-2.08c.87,0,1.38.48,1.52,1.16h-.31c-.18-.53-.53-.87-1.22-.87-1,0-1.43.92-1.43,1.79s.42,1.78,1.45,1.78c.66,0,.99-.34,1.19-.84h.31Z"/>
          <path class="cls-2" d="M102.26,65.29c0,.8-.44,1.52-1.3,1.52-.78,0-1.26-.64-1.26-1.51,0-.83.46-1.51,1.29-1.51.77,0,1.28.6,1.28,1.51ZM99.99,65.29c0,.69.37,1.24.98,1.24s.98-.51.98-1.24c0-.68-.35-1.24-.99-1.24s-.97.55-.97,1.24Z"/>
          <path class="cls-2" d="M102.97,64.59c0-.25,0-.52,0-.74h.28c0,.1.02.35.01.51.12-.29.39-.58.87-.58.4,0,.72.2.84.57.14-.3.43-.57.94-.57.44,0,.91.25.91,1.06v1.9h-.29v-1.86c0-.39-.14-.81-.67-.81s-.81.45-.81,1.01v1.66h-.28v-1.86c0-.42-.13-.81-.66-.81-.56,0-.83.5-.83,1.08v1.59h-.29v-2.14Z"/>
          <path class="cls-2" d="M108.05,66.31v1.58h-.29v-3.33c0-.24,0-.49,0-.71h.28c.01.11.01.28.01.52.18-.35.5-.59,1.02-.59.68,0,1.15.57,1.15,1.44,0,1.04-.55,1.59-1.25,1.59-.51,0-.77-.23-.92-.5ZM109.91,65.23c0-.67-.32-1.17-.89-1.17-.7,0-.99.44-.99,1.22s.23,1.25.95,1.25c.6,0,.94-.51.94-1.3Z"/>
          <path class="cls-2" d="M112.92,66.19c0,.25.02.46.04.55h-.28c-.02-.07-.04-.2-.05-.44-.1.21-.35.51-.95.51-.67,0-.96-.43-.96-.87,0-.63.49-.92,1.36-.92h.55v-.29c0-.29-.09-.68-.74-.68-.58,0-.67.31-.73.54h-.29c.03-.32.23-.81,1.03-.81.66,0,1.03.28,1.03.91v1.49ZM112.63,65.26h-.57c-.64,0-1.04.17-1.04.66,0,.36.26.61.66.61.82,0,.94-.55.94-1.17v-.1Z"/>
          <path class="cls-2" d="M113.87,64.58c0-.25,0-.5,0-.73h.28c.01.09.02.47.01.55.13-.29.36-.62.96-.62.51,0,.97.29.97,1.08v1.87h-.29v-1.82c0-.51-.21-.85-.72-.85-.69,0-.92.57-.92,1.2v1.47h-.29v-2.16Z"/>
          <path class="cls-2" d="M116.93,63.85c.58,1.65.84,2.33.93,2.64h0c.12-.35.35-1.02.91-2.64h.3l-1.08,3.05c-.31.85-.51,1.04-1.03,1.04-.1,0-.17,0-.27-.02v-.29c.09.01.17.02.26.02.42,0,.55-.2.76-.8l-1.1-3.01h.32Z"/>
        </g>
      </g>
    </g>
  </g>
</svg>